<svg preserveAspectRatio="none" width="100%" height="100%" overflow="visible" style="display: block;" viewBox="0 0 23 23" fill="none" xmlns="http://www.w3.org/2000/svg">
<g id="&#229;&#188;&#128;&#229;&#191;&#131;icon">
<path id="Vector" d="M11.5 18C15.0898 18 18 15.0898 18 11.5C18 7.91015 15.0898 5 11.5 5C7.91015 5 5 7.91015 5 11.5C5 15.0898 7.91015 18 11.5 18Z" stroke="var(--stroke-0, #3A580E)" stroke-width="2" stroke-linejoin="round"/>
<path id="Vector_2" d="M11.5 0.25C12.0523 0.25 12.5 0.697717 12.5 1.25C12.5 1.80228 12.0523 2.25 11.5 2.25C10.9477 2.25 10.5 1.80228 10.5 1.25C10.5 0.697717 10.9477 0.25 11.5 0.25Z" fill="var(--fill-0, #3A580E)" stroke="var(--stroke-0, #3A580E)" stroke-width="0.5"/>
<path id="Vector_3" d="M18.75 3.25C19.3023 3.25 19.75 3.69772 19.75 4.25C19.75 4.80228 19.3023 5.25 18.75 5.25C18.1977 5.25 17.75 4.80228 17.75 4.25C17.75 3.69772 18.1977 3.25 18.75 3.25Z" fill="var(--fill-0, #3A580E)" stroke="var(--stroke-0, #3A580E)" stroke-width="0.5"/>
<path id="Vector_4" d="M21.75 10.5C22.3023 10.5 22.75 10.9477 22.75 11.5C22.75 12.0523 22.3023 12.5 21.75 12.5C21.1977 12.5 20.75 12.0523 20.75 11.5C20.75 10.9477 21.1977 10.5 21.75 10.5Z" fill="var(--fill-0, #3A580E)" stroke="var(--stroke-0, #3A580E)" stroke-width="0.5"/>
<path id="Vector_5" d="M18.75 17.75C19.3023 17.75 19.75 18.1977 19.75 18.75C19.75 19.3023 19.3023 19.75 18.75 19.75C18.1977 19.75 17.75 19.3023 17.75 18.75C17.75 18.1977 18.1977 17.75 18.75 17.75Z" fill="var(--fill-0, #3A580E)" stroke="var(--stroke-0, #3A580E)" stroke-width="0.5"/>
<path id="Vector_6" d="M11.5 20.75C12.0523 20.75 12.5 21.1977 12.5 21.75C12.5 22.3023 12.0523 22.75 11.5 22.75C10.9477 22.75 10.5 22.3023 10.5 21.75C10.5 21.1977 10.9477 20.75 11.5 20.75Z" fill="var(--fill-0, #3A580E)" stroke="var(--stroke-0, #3A580E)" stroke-width="0.5"/>
<path id="Vector_7" d="M4.25 17.75C4.80228 17.75 5.25 18.1977 5.25 18.75C5.25 19.3023 4.80228 19.75 4.25 19.75C3.69772 19.75 3.25 19.3023 3.25 18.75C3.25 18.1977 3.69772 17.75 4.25 17.75Z" fill="var(--fill-0, #3A580E)" stroke="var(--stroke-0, #3A580E)" stroke-width="0.5"/>
<path id="Vector_8" d="M1.25 10.5C1.80228 10.5 2.25 10.9477 2.25 11.5C2.25 12.0523 1.80228 12.5 1.25 12.5C0.697717 12.5 0.25 12.0523 0.25 11.5C0.25 10.9477 0.697717 10.5 1.25 10.5Z" fill="var(--fill-0, #3A580E)" stroke="var(--stroke-0, #3A580E)" stroke-width="0.5"/>
<path id="Vector_9" d="M4.25 3.25C4.80228 3.25 5.25 3.69772 5.25 4.25C5.25 4.80228 4.80228 5.25 4.25 5.25C3.69772 5.25 3.25 4.80228 3.25 4.25C3.25 3.69772 3.69772 3.25 4.25 3.25Z" fill="var(--fill-0, #3A580E)" stroke="var(--stroke-0, #3A580E)" stroke-width="0.5"/>
</g>
</svg>
