<svg preserveAspectRatio="none" width="100%" height="100%" overflow="visible" style="display: block;" viewBox="0 0 291.167 44.9414" fill="none" xmlns="http://www.w3.org/2000/svg">
<path id="Vector 1" d="M0 39.6081C0 42.5536 2.38781 44.9414 5.33333 44.9414C8.27885 44.9414 10.6667 42.5536 10.6667 39.6081C10.6667 36.6626 8.27885 34.2748 5.33333 34.2748C2.38781 34.2748 0 36.6626 0 39.6081ZM50.3333 16.1081L50.535 15.1286L50.1861 15.0568L49.8704 15.2217L50.3333 16.1081ZM135.333 33.6081L135.132 34.5876L135.574 34.6786L135.935 34.407L135.333 33.6081ZM177.833 1.6081L178.772 1.26239L178.307 0L177.232 0.809227L177.833 1.6081ZM184.833 20.6081L183.895 20.9538L184.08 21.4552L184.599 21.5803L184.833 20.6081ZM238.833 33.6081L238.599 34.5803L238.991 34.6746L239.338 34.4712L238.833 33.6081ZM280.5 6.1081C280.5 9.05362 282.888 11.4414 285.833 11.4414C288.779 11.4414 291.167 9.05362 291.167 6.1081C291.167 3.16258 288.779 0.774764 285.833 0.774764C282.888 0.774764 280.5 3.16258 280.5 6.1081ZM5.33333 39.6081L5.79624 40.4945L50.7962 16.9945L50.3333 16.1081L49.8704 15.2217L4.87043 38.7217L5.33333 39.6081ZM50.3333 16.1081L50.1317 17.0876L135.132 34.5876L135.333 33.6081L135.535 32.6286L50.535 15.1286L50.3333 16.1081ZM135.333 33.6081L135.935 34.407L178.435 2.40697L177.833 1.6081L177.232 0.809227L134.732 32.8092L135.333 33.6081ZM177.833 1.6081L176.895 1.9538L183.895 20.9538L184.833 20.6081L185.772 20.2624L178.772 1.26239L177.833 1.6081ZM184.833 20.6081L184.599 21.5803L238.599 34.5803L238.833 33.6081L239.067 32.6359L185.067 19.6359L184.833 20.6081ZM238.833 33.6081L239.338 34.4712L286.338 6.97121L285.833 6.1081L285.328 5.24499L238.328 32.745L238.833 33.6081Z" fill="var(--stroke-0, #7C915E)"/>
</svg>
