<svg preserveAspectRatio="none" width="100%" height="100%" overflow="visible" style="display: block;" viewBox="0 0 32 32" fill="none" xmlns="http://www.w3.org/2000/svg">
<g id="Frame">
<path id="Vector" d="M17.4146 24.9568C17.4146 24.9568 24.9571 17.4143 26.8427 15.5287C28.7283 13.6431 29.6711 8.929 26.3713 5.6292C23.0714 2.32937 18.3574 3.27217 16.4717 5.15779C14.5861 7.0434 4.68665 16.9429 3.74384 17.8857C2.80103 18.8285 1.38682 22.1283 4.21525 24.9568C7.04367 27.7852 10.3435 26.371 11.2863 25.4282C12.2291 24.4854 22.6 14.1145 23.5428 13.1717C24.4857 12.2289 24.9571 9.87187 23.5428 8.4576C22.1286 7.0434 19.7716 7.5148 18.8288 8.4576C17.886 9.40047 9.87213 17.4143 9.87213 17.4143" stroke="var(--stroke-0, #989595)" stroke-width="2" stroke-linecap="round" stroke-linejoin="round"/>
</g>
</svg>
