<svg preserveAspectRatio="none" width="100%" height="100%" overflow="visible" style="display: block;" viewBox="0 0 24 24" fill="none" xmlns="http://www.w3.org/2000/svg">
<g id="&#228;&#184;&#170;&#228;&#186;&#186;">
<path id="Vector" fill-rule="evenodd" clip-rule="evenodd" d="M12 22C17.5229 22 22 17.5229 22 12C22 6.47715 17.5229 2 12 2C6.47715 2 2 6.47715 2 12C2 17.5229 6.47715 22 12 22Z" stroke="var(--stroke-0, #3A580E)" stroke-width="2" stroke-linecap="round" stroke-linejoin="round"/>
<path id="Vector_2" d="M12 11.5C13.3807 11.5 14.5 10.3807 14.5 9C14.5 7.6193 13.3807 6.5 12 6.5C10.6193 6.5 9.5 7.6193 9.5 9C9.5 10.3807 10.6193 11.5 12 11.5Z" stroke="var(--stroke-0, #3A580E)" stroke-width="2" stroke-linejoin="round"/>
<path id="Vector_3" d="M5.011 19.166C5.18285 16.5603 7.3508 14.5 10 14.5H14C16.6457 14.5 18.8115 16.5548 18.9884 19.1556" stroke="var(--stroke-0, #3A580E)" stroke-width="2" stroke-linecap="round" stroke-linejoin="round"/>
</g>
</svg>
